<svg xmlns="http://www.w3.org/2000/svg" viewBox="-11.67 -11.00 18.00 18.00" fill="none" stroke="#e0d8c8" stroke-width="1.17" stroke-linecap="round" stroke-linejoin="round">
  <path d="m 0.0,-5.0 l1.3333282470703125,0.666656494140625l0.6666717529296875,0l1.3333282470703125,-0.666656494140625l0.6666717529296875,-1.333343505859375l0,-0.666656494140625l-0.6666717529296875,-1.333343505859375l-1.3333282470703125,-0.666656494140625l-0.6666717529296875,0l-1.3333282470703125,0.666656494140625l-0.6666717529296875,1.333343505859375l0,0.666656494140625l0.6666717529296875,1.333343505859375l2,2.666656494140625l0.6666717529296875,2l0,1.333343505859375l-0.6666717529296875,2l-1.3333282470703125,1.333343505859375l-2,0.666656494140625l-2.6666717529296875,0l-2,-0.666656494140625l-1.3333282470703125,-1.333343505859375l-0.6666717529296875,-2l0,-1.333343505859375l0.6666717529296875,-2l2,-2.666656494140625l0.666656494140625,-1.333343505859375l0,-0.666656494140625l-0.666656494140625,-1.333343505859375l-1.333343505859375,-0.666656494140625l-0.666656494140625,0l-1.333343505859375,0.666656494140625l-0.666656494140625,1.333343505859375l0,0.666656494140625l0.666656494140625,1.333343505859375l1.333343505859375,0.666656494140625l0.666656494140625,0l1.333343505859375,-0.666656494140625m8,6l-0.6666717529296875,1.333343505859375l-1.3333282470703125,1.33331298828125l-2,0.66668701171875l-2.6666717529296875,0l-2,-0.66668701171875l-1.3333282470703125,-1.33331298828125l-0.6666717529296875,-1.333343505859375"/>
</svg>