<svg xmlns="http://www.w3.org/2000/svg" viewBox="-12.86 -12.65 24.19 24.19" fill="none" stroke="#e0d8c8" stroke-width="1.57" stroke-linecap="round" stroke-linejoin="round">
  <path d="m 5.0,-5.0 a 5.7676856,5.7676856 0 0 1 -2.88385,4.99496 5.7676856,5.7676856 0 0 1 -5.76768,0 5.7676856,5.7676856 0 0 1 -2.88385,-4.99496 m 5.76771,13.93858 0,-8.17088 m -3.84512,4.32576 7.69024,0"/>
  <path d="m 2.7,-5.0 a 3.3644834,3.3644834 0 0 1 -3.36448,3.36449 3.3644834,3.3644834 0 0 1 -3.36448,-3.36449 3.3644834,3.3644834 0 0 1 3.36448,-3.36448 3.3644834,3.3644834 0 0 1 3.36448,3.36448 z"/>
</svg>