<svg xmlns="http://www.w3.org/2000/svg" viewBox="-8.33 -9.00 18.00 18.00" fill="none" stroke="#e0d8c8" stroke-width="1.17" stroke-linecap="round" stroke-linejoin="round">
  <path d="m -2.0,3.0 -1.3333334,-0.6666667 -0.6666666,0 -1.3333334,0.6666667 -0.6666667,1.3333333 0,0.6666667 0.6666667,1.3333333 1.3333334,0.6666667 0.6666666,0 1.3333334,-0.6666667 0.6666666,-1.3333333 0,-0.6666667 -0.6666666,-1.3333333 -2,-2.66666665 -0.6666667,-1.99999995 0,-1.3333334 0.6666667,-2 1.3333333,-1.3333333 2,-0.6666667 2.6666666,0 2,0.6666667 1.3333333,1.3333333 0.6666667,2 0,1.3333334 -0.6666667,1.99999995 -2,2.66666665 -0.6666666,1.3333333 0,0.6666667 0.6666666,1.3333333 1.3333334,0.6666667 0.6666666,0 1.3333334,-0.6666667 0.6666667,-1.3333333 0,-0.6666667 -0.6666667,-1.3333333 -1.3333334,-0.6666667 -0.6666666,0 -1.3333334,0.6666667 m -7.9999999,-6 0.6666667,-1.3333333 1.3333333,-1.3333333 2,-0.6666667 2.6666666,0 2,0.6666667 1.3333333,1.3333333 0.6666667,1.3333333"/>
</svg>