<svg xmlns="http://www.w3.org/2000/svg" viewBox="-9.55 -10.00 19.27 19.27" fill="none" stroke="#e0d8c8" stroke-width="1.25" stroke-linecap="round" stroke-linejoin="round">
  <path d="m -1.0,-8.0 -2.18182,0.727268 -2.181819,1.454543 -1.454552,2.18182 -0.727268,2.181819 0,2.181819 0.727268,2.181819 1.454552,2.18182 2.181819,1.454544 2.18182,0.727276 2.18181,0 2.18182,-0.727276 2.181819,-1.454544 1.454552,-2.18182 0.727268,-2.181819 0,-2.181819 -0.727268,-2.181819 -1.454552,-2.18182 -2.181819,-1.454543 -2.18182,-0.727268 -2.18181,0 m 0.727267,6.54545 -0.727267,0.727276 0,0.727275 0.727267,0.727268 0.727276,0 0.727267,-0.727268 0,-0.727275 -0.727267,-0.727276 -0.727276,0 m 0,0.727276 0,0.727275 0.727276,0 0,-0.727275 -0.727276,0"/>
</svg>